<svg xmlns="http://www.w3.org/2000/svg" viewBox="0 0 122 122"><path d="M.03 0h121.74v122H.03z" fill="#fff"/><path d="M60.9 61.08L19.29 19.39V0H0v122h19.29v-19.22z" fill="#2b4173"/><path d="M122 106.63V15.37L76.47 61z" fill="#009de0"/><path d="M27.65 109.92V122H122v-15.37L76.47 61z" fill="#49afe8"/><path d="M27.65 0v12.08L76.47 61 122 15.37V0z" fill="#b2d9f6"/><path d="M87.235 69.448a10.97 10.97 0 0 0-2.34.494c-1.084.376-1.893.859-2.573 1.532-.358.354-.501.608-.701 1.235-.279.873-.215 1.546.197 2.104.283.383.669.619 1.571.948 1.102.404 1.346.655 1.353 1.385 0 .268-.011.336-.1.512-.154.318-.501.544-1.109.723-.2.061-.637.064-6.585.082l-6.442.05c-.154.072-.279.19-.369.344l-.097.161v6.334l.247 7.29c.179.53.379.852.773 1.245.268.272.397.372.612.476a2.58 2.58 0 0 0 1.21.276c.791 0 1.435-.229 1.904-.673.426-.401.623-.741.998-1.725.258-.673.354-.848.487-.88.147-.036.401.007.748.132.283.104.347.143.53.333.569.591 1.034 1.539 1.288 2.616.179.755.222 1.152.222 2.022a7.07 7.07 0 0 1-.118 1.503c-.132.787-.272 1.371-.437 1.843-.344.973-.941 1.847-1.414 2.061-.272.122-.608.211-.802.211-.24 0-.304-.1-.648-1.02-.422-1.138-.837-1.671-1.564-2.008-.347-.165-.633-.229-1.12-.254-.537-.029-.898.043-1.342.258-.769.369-1.338 1.177-1.553 2.201-.032.147-.039 1.879-.032 6.8l.229 6.921c.236.233.054.218 2.913.208l6.388-.043 4.695-.236c.623-.204 1.195-.565 1.525-.966a3.09 3.09 0 0 0 .515-1.016c.079-.311.079-.991-.004-1.378-.086-.397-.326-.88-.576-1.156-.372-.408-.834-.68-1.682-.991-.494-.182-.784-.315-.884-.404-.097-.082-.082-.408.029-.744.132-.397.157-.44.429-.694.787-.737 2.151-1.267 3.69-1.432 1.457-.157 3.625.193 4.86.787.447.218.827.465 1.134.748a1.02 1.02 0 0 1 .347.505c.136.361.2.701.15.827-.05.136-.2.215-.92.494-.988.376-1.267.537-1.661.955-.773.82-.93 2.276-.351 3.264.175.301.676.78 1.009.97.157.089.462.222.68.297.759.254.379.243 7.29.243l6.664-.243c.258-.25.24.229.24-6.91v-6.427l.089-.247c.24-.68.626-.955 1.26-.902.648.054.855.276 1.256 1.346.243.655.311.802.497 1.081.565.855 1.478 1.07 2.723.63.551-.193.759-.322 1.145-.726.812-.841 1.414-2.043 1.721-3.436.122-.548.286-1.596.329-2.079.093-1.049-.05-2.433-.358-3.511-.354-1.231-.884-2.204-1.61-2.952-.326-.34-.415-.408-.662-.53-1.485-.701-2.63-.508-3.275.555-.068.111-.211.429-.315.709-.336.888-.44 1.099-.637 1.303-.215.222-.462.308-.88.308-.483.004-.766-.193-1.016-.709-.268-.551-.247.014-.268-7.089l-.018-6.374-.107-.172c-.079-.129-.161-.204-.301-.276l-.19-.1h-6.456-6.456l-.261-.089c-.709-.247-1.002-.701-.888-1.385.093-.573.297-.744 1.328-1.131l.662-.261c1.192-.53 1.553-1.535 1.052-2.949-.211-.601-.297-.741-.712-1.142-.669-.644-1.492-1.127-2.512-1.467-.59-.197-1.059-.308-1.907-.451-1.064-.18-1.877-.223-2.736-.144z"/></svg>
