<svg xmlns="http://www.w3.org/2000/svg" viewBox="0 0 530 122"><path d="M185.92 65.41c0 2.97-.44 5.58-1.33 7.83-.88 2.25-2.09 4.13-3.62 5.65s-3.36 2.66-5.47 3.42c-2.12.77-4.39 1.15-6.83 1.15-2.37 0-4.6-.38-6.7-1.15s-3.93-1.91-5.5-3.42c-1.57-1.52-2.8-3.4-3.7-5.65s-1.35-4.86-1.35-7.83.47-5.57 1.4-7.82 2.19-4.14 3.77-5.68a15.62 15.62 0 0 1 5.5-3.45c2.08-.77 4.28-1.15 6.58-1.15 2.37 0 4.6.38 6.7 1.15s3.93 1.92 5.5 3.45 2.8 3.43 3.7 5.68 1.35 4.85 1.35 7.82zm-26.46 0c0 1.7.21 3.23.62 4.6.42 1.37 1.02 2.54 1.8 3.52a8.02 8.02 0 0 0 2.88 2.28c1.13.53 2.43.8 3.9.8 1.43 0 2.73-.27 3.88-.8s2.12-1.29 2.9-2.28c.78-.98 1.38-2.16 1.8-3.52.42-1.37.62-2.9.62-4.6s-.21-3.24-.62-4.62c-.42-1.38-1.02-2.57-1.8-3.55s-1.75-1.74-2.9-2.28-2.44-.8-3.88-.8c-1.47 0-2.77.28-3.9.83s-2.09 1.32-2.88 2.3c-.78.98-1.38 2.17-1.8 3.55-.41 1.38-.62 2.9-.62 4.57zm43.35-17.7c5.17 0 9.13.91 11.9 2.72 2.77 1.82 4.15 4.79 4.15 8.93 0 4.17-1.4 7.17-4.2 9.02s-6.8 2.77-12 2.77h-2.45v11.6h-7.8V48.61a44.13 44.13 0 0 1 5.4-.7c1.9-.13 3.57-.2 5-.2zm.5 6.65c-.57 0-1.12.02-1.67.05s-1.02.07-1.43.1v10h2.45c2.7 0 4.73-.37 6.1-1.1s2.05-2.1 2.05-4.1c0-.97-.17-1.77-.52-2.4a3.98 3.98 0 0 0-1.5-1.52c-.65-.38-1.44-.65-2.38-.8-.93-.16-1.96-.23-3.1-.23zm47.65-6.25v6.65h-10.45v28h-7.8v-28h-10.45v-6.65h28.7zm5 0h7.8v34.65h-7.8V48.11zm25 0l2.08 4.07 2.46 5.25 2.53 5.78 2.36 5.55 2.36-5.55 2.53-5.78 2.46-5.25 2.08-4.07h7.1l.92 7.72.75 8.9.6 9.27.48 8.75h-7.6l-.4-11c-.17-3.97-.42-7.97-.75-12l-2.01 4.65-2.18 5.1-2.08 4.88-1.71 3.98h-5.45l-1.71-3.98-2.08-4.88-2.18-5.1-2.01-4.65c-.33 4.03-.58 8.03-.75 12l-.4 11h-7.6l.48-8.75.6-9.27.75-8.9a173.35 173.35 0 0 1 .92-7.72h7.45zm58.9 34.65l-1.24-3.71-1.33-3.79h-13.53l-1.32 3.8-1.23 3.7h-8.1l3.71-10.35 3.44-8.95 3.31-7.97a179.07 179.07 0 0 1 3.39-7.38h7.39l3.37 7.38 3.34 7.97 3.44 8.95 3.72 10.35h-8.36zm-9.37-26.8l-.76 2.05-1.14 3-1.44 3.75-1.61 4.29h9.91l-1.54-4.31-1.42-3.76-1.18-3-.82-2.02zm46.74 26.66l-2.08-5.76-2.01-6.74-2 6.74-2.06 5.76h-2.83c-1.07-2.4-2.12-5.15-3.15-8.23s-2-6.4-2.91-9.97h3.5a79.78 79.78 0 0 0 .84 3.57l1.03 3.85a77.64 77.64 0 0 0 1.14 3.71l1.12 3.12 1.17-3.48 1.1-3.71 1-3.67.82-3.38h2.69l.77 3.38.98 3.67 1.1 3.71 1.17 3.48 1.1-3.12 1.14-3.71a137.56 137.56 0 0 0 1.05-3.85 79.78 79.78 0 0 0 .84-3.57h3.36c-.91 3.57-1.88 6.89-2.9 9.97-1.03 3.08-2.08 5.82-3.15 8.23h-2.83zm19.04-18.59c.28 0 .6.02.96.05l1.07.14.96.17.65.16-.56 2.83c-.26-.09-.68-.2-1.28-.33-.59-.13-1.36-.19-2.29-.19-.61 0-1.21.06-1.8.19l-1.17.26V82.6h-3.26V65.19c.77-.28 1.73-.54 2.87-.79 1.14-.24 2.42-.37 3.85-.37zm12.67-.07c1.31 0 2.41.17 3.31.51s1.62.82 2.17 1.43c.55.62.94 1.35 1.17 2.21.23.85.35 1.79.35 2.82V82.3l-1.17.19-1.7.23-2.05.19-2.19.09c-1.03 0-1.97-.11-2.83-.32s-1.61-.54-2.24-1-1.12-1.06-1.47-1.8c-.35-.75-.52-1.64-.52-2.69 0-1 .2-1.87.61-2.59s.96-1.31 1.66-1.75 1.52-.77 2.45-.98 1.91-.32 2.94-.32l1.02.05c.35.03.68.08 1 .14l.82.16.49.1v-.9a7.05 7.05 0 0 0-.18-1.59 3.72 3.72 0 0 0-.63-1.4c-.3-.41-.72-.74-1.24-.98-.52-.25-1.21-.37-2.05-.37-1.07 0-2.01.08-2.82.23s-1.41.31-1.8.47l-.38-2.7c.42-.19 1.12-.37 2.1-.54s2.03-.26 3.18-.26zm.28 16.31l2.05-.05c.6-.04 1.09-.1 1.49-.19V74.6c-.23-.12-.61-.21-1.14-.3s-1.16-.12-1.91-.12c-.49 0-1.01.04-1.56.11s-1.05.22-1.5.44c-.46.22-.83.52-1.14.91-.3.38-.46.89-.46 1.52 0 1.17.37 1.98 1.12 2.43.75.46 1.76.68 3.05.68zm28.14-6.72c0 1.38-.18 2.65-.54 3.82s-.89 2.17-1.59 3.01-1.56 1.49-2.57 1.96-2.18.7-3.48.7c-1.05 0-1.98-.14-2.78-.42s-1.41-.55-1.8-.81v7.28h-3.26V64.98l2.89-.61c1.15-.22 2.49-.33 4.01-.33 1.4 0 2.66.22 3.78.67 1.12.44 2.08 1.07 2.87 1.89s1.41 1.81 1.84 2.99c.41 1.17.63 2.49.63 3.96zm-3.4 0c0-2.12-.52-3.76-1.57-4.9s-2.45-1.72-4.2-1.72l-2.29.11c-.55.07-.99.15-1.31.25v11.48c.4.33.97.64 1.71.95.75.3 1.56.46 2.45.46.93 0 1.73-.17 2.4-.51a4.34 4.34 0 0 0 1.63-1.4c.42-.6.72-1.29.91-2.1.18-.81.27-1.68.27-2.62zm24.01 0c0 1.38-.18 2.65-.54 3.82s-.89 2.17-1.59 3.01-1.56 1.49-2.57 1.96-2.18.7-3.48.7c-1.05 0-1.98-.14-2.78-.42s-1.41-.55-1.8-.81v7.28h-3.25V64.98l2.89-.61c1.16-.22 2.49-.33 4.01-.33 1.4 0 2.66.22 3.78.67 1.12.44 2.08 1.07 2.87 1.89s1.41 1.81 1.84 2.99c.41 1.17.62 2.49.62 3.96zm-3.39 0c0-2.12-.52-3.76-1.57-4.9s-2.45-1.72-4.2-1.72l-2.29.11c-.54.07-.99.15-1.31.25v11.48c.4.33.97.64 1.71.95.75.3 1.56.46 2.45.46.93 0 1.73-.17 2.4-.51a4.34 4.34 0 0 0 1.63-1.4c.42-.6.72-1.29.91-2.1.17-.81.27-1.68.27-2.62zm6.96 0c0-1.61.23-3.02.7-4.22s1.08-2.2 1.85-2.99 1.66-1.39 2.66-1.79 2.03-.59 3.08-.59c2.45 0 4.33.76 5.63 2.29s1.96 3.86 1.96 6.98v.54c0 .22-.01.43-.04.61h-12.46c.14 1.89.69 3.33 1.65 4.31s2.45 1.47 4.48 1.47c1.14 0 2.11-.1 2.89-.3s1.37-.39 1.77-.58l.46 2.73c-.4.21-1.09.43-2.08.67-.99.23-2.12.35-3.38.35-1.59 0-2.96-.24-4.11-.72-1.16-.48-2.11-1.14-2.85-1.98-.75-.84-1.3-1.84-1.66-2.99-.37-1.14-.55-2.41-.55-3.79zm12.5-1.78c.02-1.47-.34-2.68-1.1-3.62-.76-.95-1.8-1.42-3.13-1.42-.75 0-1.41.15-1.98.44s-1.06.67-1.45 1.14c-.4.47-.71 1-.93 1.61s-.37 1.22-.44 1.85h9.03zm14.8-7.74c.28 0 .6.02.96.05l1.07.14.96.17.65.16-.56 2.83c-.26-.09-.68-.2-1.28-.33-.59-.13-1.36-.19-2.29-.19-.61 0-1.21.06-1.8.19l-1.17.26V82.6h-3.25V65.19c.77-.28 1.73-.54 2.87-.79 1.13-.24 2.42-.37 3.84-.37z"/><path d="M.03 0h121.74v122H.03z" fill="#fff"/><path d="M60.9 61.08L19.29 19.39V0H0v122h19.29v-19.22z" fill="#2b4173"/><path d="M122 106.63V15.37L76.47 61z" fill="#009de0"/><path d="M27.65 109.92V122H122v-15.37L76.47 61z" fill="#49afe8"/><path d="M27.65 0v12.08L76.47 61 122 15.37V0z" fill="#b2d9f6"/><path d="M87.235 69.448a10.97 10.97 0 0 0-2.34.494c-1.084.376-1.893.859-2.573 1.532-.358.354-.501.608-.701 1.235-.279.873-.215 1.546.197 2.104.283.383.669.619 1.571.948 1.102.404 1.346.655 1.353 1.385 0 .268-.011.336-.1.512-.154.318-.501.544-1.109.723-.2.061-.637.064-6.585.082l-6.442.05c-.154.072-.279.19-.369.344l-.097.161v6.334l.247 7.29c.179.53.379.852.773 1.245.268.272.397.372.612.476a2.58 2.58 0 0 0 1.21.276c.791 0 1.435-.229 1.904-.673.426-.401.623-.741.998-1.725.258-.673.354-.848.487-.88.147-.036.401.007.748.132.283.104.347.143.53.333.569.591 1.034 1.539 1.288 2.616.179.755.222 1.152.222 2.022a7.07 7.07 0 0 1-.118 1.503c-.132.787-.272 1.371-.437 1.843-.344.973-.941 1.847-1.414 2.061-.272.122-.608.211-.802.211-.24 0-.304-.1-.648-1.02-.422-1.138-.837-1.671-1.564-2.008-.347-.165-.633-.229-1.12-.254-.537-.029-.898.043-1.342.258-.769.369-1.338 1.177-1.553 2.201-.032.147-.039 1.879-.032 6.8l.229 6.921c.236.233.054.218 2.913.208l6.388-.043 4.695-.236c.623-.204 1.195-.565 1.525-.966a3.09 3.09 0 0 0 .515-1.016c.079-.311.079-.991-.004-1.378-.086-.397-.326-.88-.576-1.156-.372-.408-.834-.68-1.682-.991-.494-.182-.784-.315-.884-.404-.097-.082-.082-.408.029-.744.132-.397.157-.44.429-.694.787-.737 2.151-1.267 3.69-1.432 1.457-.157 3.625.193 4.86.787.447.218.827.465 1.134.748a1.02 1.02 0 0 1 .347.505c.136.361.2.701.15.827-.05.136-.2.215-.92.494-.988.376-1.267.537-1.661.955-.773.82-.93 2.276-.351 3.264.175.301.676.78 1.009.97.157.089.462.222.68.297.759.254.379.243 7.29.243l6.664-.243c.258-.25.24.229.24-6.91v-6.427l.089-.247c.24-.68.626-.955 1.26-.902.648.054.855.276 1.256 1.346.243.655.311.802.497 1.081.565.855 1.478 1.07 2.723.63.551-.193.759-.322 1.145-.726.812-.841 1.414-2.043 1.721-3.436.122-.548.286-1.596.329-2.079.093-1.049-.05-2.433-.358-3.511-.354-1.231-.884-2.204-1.61-2.952-.326-.34-.415-.408-.662-.53-1.485-.701-2.63-.508-3.275.555-.068.111-.211.429-.315.709-.336.888-.44 1.099-.637 1.303-.215.222-.462.308-.88.308-.483.004-.766-.193-1.016-.709-.268-.551-.247.014-.268-7.089l-.018-6.374-.107-.172c-.079-.129-.161-.204-.301-.276l-.19-.1h-6.456-6.456l-.261-.089c-.709-.247-1.002-.701-.888-1.385.093-.573.297-.744 1.328-1.131l.662-.261c1.192-.53 1.553-1.535 1.052-2.949-.211-.601-.297-.741-.712-1.142-.669-.644-1.492-1.127-2.512-1.467-.59-.197-1.059-.308-1.907-.451-1.064-.18-1.877-.223-2.736-.144z"/></svg>
